<?xml version="1.0" encoding="utf-8"?>
<!-- Generator: Adobe Illustrator 24.0.3, SVG Export Plug-In . SVG Version: 6.00 Build 0)  -->
<svg version="1.1" id="Layer_1" xmlns="http://www.w3.org/2000/svg" xmlns:xlink="http://www.w3.org/1999/xlink" x="0px" y="0px"
	 viewBox="0 0 402 735" style="enable-background:new 0 0 402 735;" xml:space="preserve">
<style type="text/css">
	.st0{fill:#6800FF;}
	.st1{fill:#EE5BA0;}
</style>
<g>
	<g>
		<path class="st0" d="M31.38,301.77h5.9c60.82,0,92.01-17.15,92.01-76.42c0-13.25-2.34-46.01-2.34-57.71
			c0-85.77,44.28-150.5,205.86-150.5l-0.89,100.5c-84.96,0-73.19,25.82-73.19,74.17c0,13.26,2.34,38.21,2.34,54.59
			c0,55.04-28.51,86.7-81.84,102.84c53.33,16.14,81.84,47.8,81.84,102.84c0,16.37-2.34,41.33-2.34,54.59
			c0,48.35-11.77,74.17,73.19,74.17l0.89,100.5c-161.58,0-205.86-64.72-205.86-150.5c0-11.7,2.34-44.45,2.34-57.71
			c0-59.27-31.19-76.42-92.01-76.42h-5.9V301.77z"/>
		<path class="st1" d="M332.97,681.49h-0.15c-39.02,0-72.79-3.86-100.37-11.46c-25.83-7.12-47.11-17.77-63.25-31.66
			c-28.53-24.54-42.39-59.72-42.39-107.53c0-5.67,0.54-16.14,1.12-27.22c0.6-11.63,1.22-23.66,1.22-30.49
			c0-14.78-1.9-26.85-5.81-36.89c-3.82-9.81-9.49-17.48-17.32-23.43c-14.33-10.88-36.17-15.95-68.72-15.95h-6.05v-95.25h6.05
			c32.55,0,54.39-5.07,68.72-15.95c7.83-5.95,13.5-13.61,17.32-23.43c3.91-10.04,5.81-22.1,5.81-36.89c0-6.83-0.62-18.86-1.22-30.49
			c-0.57-11.08-1.12-21.55-1.12-27.22c0-47.81,13.87-82.99,42.39-107.53c16.14-13.89,37.42-24.54,63.25-31.66
			C260.03,20.86,293.8,17,332.82,17h0.15l-0.89,100.81h-0.15c-35.17,0-55.17,4.44-64.84,14.4c-9.51,9.79-9.06,24.83-8.5,43.87
			c0.15,5.01,0.3,10.2,0.3,15.75c0,6.28,0.52,15.15,1.08,24.55c0.62,10.53,1.26,21.42,1.26,30.04c0,13.61-1.78,26.08-5.29,37.06
			c-3.46,10.82-8.73,20.59-15.66,29.04c-13.45,16.4-33.25,28.42-60.51,36.73c27.27,8.32,47.06,20.34,60.51,36.73
			c6.93,8.45,12.2,18.22,15.66,29.04c3.51,10.98,5.29,23.45,5.29,37.06c0,8.62-0.64,19.51-1.26,30.04
			c-0.55,9.4-1.08,18.27-1.08,24.55c0,5.55-0.15,10.73-0.3,15.75c-0.56,19.04-1.01,34.08,8.5,43.87c9.67,9.96,29.67,14.4,64.84,14.4
			h0.15L332.97,681.49z M31.53,396.57h5.75c32.62,0,54.52,5.09,68.91,16.02c7.88,5.98,13.58,13.69,17.42,23.56
			c3.93,10.07,5.83,22.18,5.83,37c0,6.84-0.62,18.87-1.22,30.5c-0.57,11.08-1.12,21.54-1.12,27.2c0,47.72,13.83,82.82,42.29,107.3
			c16.11,13.86,37.35,24.49,63.13,31.6c27.52,7.59,61.21,11.44,100.14,11.45l-0.89-100.2c-35.17-0.01-55.19-4.48-64.91-14.49
			c-9.59-9.88-9.15-24.98-8.59-44.09c0.15-5.01,0.3-10.19,0.3-15.74c0-6.28,0.52-15.16,1.08-24.56c0.62-10.52,1.26-21.41,1.26-30.02
			c0-13.58-1.78-26.02-5.28-36.97c-3.45-10.79-8.7-20.52-15.61-28.94c-13.49-16.44-33.39-28.48-60.85-36.78l-0.48-0.15l0.48-0.15
			c27.45-8.31,47.36-20.34,60.85-36.78c6.9-8.42,12.16-18.15,15.61-28.94c3.5-10.95,5.28-23.39,5.28-36.97
			c0-8.61-0.64-19.5-1.26-30.02c-0.55-9.4-1.08-18.28-1.08-24.56c0-5.54-0.15-10.72-0.3-15.74c-0.56-19.11-1.01-34.21,8.59-44.09
			c9.72-10.01,29.74-14.48,64.91-14.49l0.89-100.2c-38.93,0.01-72.62,3.86-100.14,11.45c-25.78,7.11-47.02,17.74-63.13,31.6
			c-28.45,24.48-42.29,59.58-42.29,107.3c0,5.66,0.54,16.13,1.11,27.2c0.6,11.63,1.23,23.66,1.23,30.5c0,14.82-1.91,26.92-5.83,37
			c-3.85,9.87-9.54,17.57-17.42,23.56c-14.39,10.93-36.28,16.02-68.91,16.02h-5.75V396.57z"/>
	</g>
	<g>
		<path class="st0" d="M33.71,302.83h5.9c60.82,0,92.01-17.15,92.01-76.42c0-13.25-2.34-46.01-2.34-57.71
			c0-85.77,44.28-150.5,205.86-150.5l-0.89,100.5c-84.96,0-73.19,25.82-73.19,74.17c0,13.26,2.34,38.21,2.34,54.59
			c0,55.04-28.51,86.7-81.84,102.84c53.33,16.14,81.84,47.8,81.84,102.84c0,16.37-2.34,41.33-2.34,54.59
			c0,48.35-11.77,74.17,73.19,74.17l0.89,100.5c-161.58,0-205.86-64.72-205.86-150.5c0-11.7,2.34-44.45,2.34-57.71
			c0-59.27-31.19-76.42-92.01-76.42h-5.9V302.83z"/>
		<path class="st1" d="M335.3,682.55h-0.15c-39.02,0-72.79-3.86-100.37-11.46c-25.83-7.12-47.11-17.77-63.25-31.66
			c-28.53-24.54-42.39-59.72-42.39-107.53c0-5.67,0.54-16.14,1.12-27.22c0.6-11.63,1.22-23.66,1.22-30.49
			c0-14.78-1.9-26.85-5.81-36.89c-3.82-9.81-9.49-17.48-17.32-23.43C94,403,72.16,397.93,39.61,397.93h-6.05v-95.25h6.05
			c32.55,0,54.39-5.07,68.72-15.95c7.83-5.95,13.5-13.61,17.32-23.43c3.91-10.04,5.81-22.1,5.81-36.89c0-6.83-0.62-18.86-1.22-30.49
			c-0.57-11.08-1.12-21.55-1.12-27.22c0-47.81,13.87-82.99,42.39-107.53c16.14-13.89,37.42-24.54,63.25-31.66
			c27.58-7.6,61.35-11.46,100.37-11.46h0.15l-0.89,100.81h-0.15c-35.17,0-55.17,4.44-64.84,14.4c-9.51,9.79-9.06,24.83-8.5,43.87
			c0.15,5.01,0.3,10.2,0.3,15.75c0,6.28,0.52,15.15,1.08,24.55c0.62,10.53,1.26,21.42,1.26,30.04c0,13.61-1.78,26.08-5.29,37.06
			c-3.46,10.82-8.73,20.59-15.66,29.04c-13.45,16.4-33.25,28.42-60.51,36.73c27.27,8.32,47.06,20.34,60.51,36.73
			c6.93,8.45,12.2,18.22,15.66,29.04c3.51,10.98,5.29,23.45,5.29,37.06c0,8.62-0.64,19.51-1.26,30.04
			c-0.55,9.4-1.08,18.27-1.08,24.55c0,5.55-0.15,10.73-0.3,15.75c-0.56,19.04-1.01,34.08,8.5,43.87c9.67,9.96,29.67,14.4,64.84,14.4
			h0.15L335.3,682.55z M33.86,397.62h5.75c32.62,0,54.52,5.09,68.91,16.02c7.88,5.98,13.58,13.69,17.42,23.56
			c3.93,10.07,5.83,22.18,5.83,37c0,6.84-0.62,18.87-1.22,30.5c-0.57,11.08-1.12,21.54-1.12,27.2c0,47.72,13.83,82.82,42.29,107.3
			c16.11,13.86,37.35,24.49,63.13,31.6c27.52,7.59,61.21,11.44,100.14,11.45l-0.89-100.2c-35.17-0.01-55.19-4.48-64.91-14.49
			c-9.59-9.88-9.15-24.98-8.59-44.09c0.15-5.01,0.3-10.19,0.3-15.74c0-6.28,0.52-15.16,1.08-24.56c0.62-10.52,1.26-21.41,1.26-30.02
			c0-13.58-1.78-26.02-5.28-36.97c-3.45-10.79-8.7-20.52-15.61-28.94c-13.49-16.44-33.39-28.48-60.85-36.78l-0.48-0.15l0.48-0.15
			c27.45-8.31,47.36-20.34,60.85-36.78c6.9-8.42,12.16-18.15,15.61-28.94c3.5-10.95,5.28-23.39,5.28-36.97
			c0-8.61-0.64-19.5-1.26-30.02c-0.55-9.4-1.08-18.28-1.08-24.56c0-5.54-0.15-10.72-0.3-15.74c-0.56-19.11-1.01-34.21,8.59-44.09
			c9.72-10.01,29.74-14.48,64.91-14.49l0.89-100.2c-38.93,0.01-72.62,3.86-100.14,11.45c-25.78,7.11-47.02,17.74-63.13,31.6
			c-28.45,24.48-42.29,59.58-42.29,107.3c0,5.66,0.54,16.13,1.11,27.2c0.6,11.63,1.23,23.66,1.23,30.5c0,14.82-1.91,26.92-5.83,37
			c-3.85,9.87-9.54,17.57-17.42,23.56c-14.39,10.93-36.28,16.02-68.91,16.02h-5.75V397.62z"/>
	</g>
	<g>
		<path class="st0" d="M36.04,303.88h5.9c60.82,0,92.01-17.15,92.01-76.42c0-13.25-2.34-46.01-2.34-57.71
			c0-85.77,44.28-150.5,205.86-150.5l-0.89,100.5c-84.96,0-73.19,25.82-73.19,74.17c0,13.26,2.34,38.21,2.34,54.59
			c0,55.04-28.51,86.7-81.84,102.84c53.33,16.14,81.84,47.8,81.84,102.84c0,16.37-2.34,41.33-2.34,54.59
			c0,48.35-11.77,74.17,73.19,74.17l0.89,100.5c-161.58,0-205.86-64.72-205.86-150.5c0-11.7,2.34-44.45,2.34-57.71
			c0-59.27-31.19-76.42-92.01-76.42h-5.9V303.88z"/>
		<path class="st1" d="M337.63,683.6h-0.15c-39.02,0-72.79-3.86-100.37-11.46c-25.83-7.12-47.11-17.77-63.25-31.66
			c-28.53-24.54-42.39-59.72-42.39-107.53c0-5.67,0.54-16.14,1.12-27.22c0.6-11.63,1.22-23.66,1.22-30.49
			c0-14.78-1.9-26.85-5.81-36.89c-3.82-9.81-9.49-17.48-17.32-23.43c-14.33-10.88-36.17-15.95-68.72-15.95h-6.05v-95.25h6.05
			c32.55,0,54.39-5.07,68.72-15.95c7.83-5.95,13.5-13.61,17.32-23.43c3.91-10.04,5.81-22.1,5.81-36.89c0-6.83-0.62-18.86-1.22-30.49
			c-0.57-11.08-1.12-21.55-1.12-27.22c0-47.81,13.87-82.99,42.39-107.53C190,48.34,211.28,37.69,237.1,30.57
			c27.58-7.6,61.35-11.46,100.37-11.46h0.15l-0.89,100.81h-0.15c-35.17,0-55.17,4.44-64.84,14.4c-9.51,9.79-9.06,24.83-8.5,43.87
			c0.15,5.01,0.3,10.2,0.3,15.75c0,6.28,0.52,15.15,1.08,24.55c0.62,10.53,1.26,21.42,1.26,30.04c0,13.61-1.78,26.08-5.29,37.06
			c-3.46,10.82-8.73,20.59-15.66,29.04c-13.45,16.4-33.25,28.42-60.51,36.73c27.27,8.32,47.06,20.34,60.51,36.73
			c6.93,8.45,12.2,18.22,15.66,29.04c3.51,10.98,5.29,23.45,5.29,37.06c0,8.62-0.64,19.51-1.26,30.04
			c-0.55,9.4-1.08,18.27-1.08,24.55c0,5.55-0.15,10.73-0.3,15.75c-0.56,19.04-1.01,34.08,8.5,43.87c9.67,9.96,29.67,14.4,64.84,14.4
			h0.15L337.63,683.6z M36.19,398.68h5.75c32.62,0,54.52,5.09,68.91,16.02c7.88,5.98,13.58,13.69,17.42,23.56
			c3.93,10.07,5.83,22.18,5.83,37c0,6.84-0.62,18.87-1.22,30.5c-0.57,11.08-1.12,21.54-1.12,27.2c0,47.72,13.83,82.82,42.29,107.3
			c16.11,13.86,37.35,24.49,63.13,31.6c27.52,7.59,61.21,11.44,100.14,11.45l-0.89-100.2c-35.17-0.01-55.19-4.48-64.91-14.49
			c-9.59-9.88-9.15-24.98-8.59-44.09c0.15-5.01,0.3-10.19,0.3-15.74c0-6.28,0.52-15.16,1.08-24.56c0.62-10.52,1.26-21.41,1.26-30.02
			c0-13.58-1.78-26.02-5.28-36.97c-3.45-10.79-8.7-20.52-15.61-28.94c-13.49-16.44-33.39-28.48-60.85-36.78l-0.48-0.15l0.48-0.15
			c27.45-8.31,47.36-20.34,60.85-36.78c6.9-8.42,12.16-18.15,15.61-28.94c3.5-10.95,5.28-23.39,5.28-36.97
			c0-8.61-0.64-19.5-1.26-30.02c-0.55-9.4-1.08-18.28-1.08-24.56c0-5.54-0.15-10.72-0.3-15.74c-0.56-19.11-1.01-34.21,8.59-44.09
			c9.72-10.01,29.74-14.48,64.91-14.49l0.89-100.2c-38.93,0.01-72.62,3.86-100.14,11.45c-25.78,7.11-47.02,17.74-63.13,31.6
			c-28.45,24.48-42.29,59.58-42.29,107.3c0,5.66,0.54,16.13,1.11,27.2c0.6,11.63,1.23,23.66,1.23,30.5c0,14.82-1.91,26.92-5.83,37
			c-3.85,9.87-9.54,17.57-17.42,23.56c-14.39,10.93-36.28,16.02-68.91,16.02h-5.75V398.68z"/>
	</g>
	<g>
		<path class="st0" d="M38.37,304.94h5.9c60.82,0,92.01-17.15,92.01-76.42c0-13.25-2.34-46.01-2.34-57.71
			c0-85.77,44.28-150.5,205.86-150.5l-0.89,100.5c-84.96,0-73.19,25.82-73.19,74.17c0,13.26,2.34,38.21,2.34,54.59
			c0,55.04-28.51,86.7-81.84,102.84c53.33,16.14,81.84,47.8,81.84,102.84c0,16.37-2.34,41.33-2.34,54.59
			c0,48.35-11.77,74.17,73.19,74.17l0.89,100.5c-161.58,0-205.86-64.72-205.86-150.5c0-11.7,2.34-44.45,2.34-57.71
			c0-59.27-31.19-76.42-92.01-76.42h-5.9V304.94z"/>
		<path class="st1" d="M339.96,684.66h-0.15c-39.02,0-72.79-3.86-100.37-11.46c-25.83-7.12-47.11-17.77-63.25-31.66
			c-28.53-24.54-42.39-59.72-42.39-107.53c0-5.67,0.54-16.14,1.12-27.22c0.6-11.63,1.22-23.66,1.22-30.49
			c0-14.78-1.9-26.85-5.81-36.89c-3.82-9.81-9.49-17.48-17.32-23.43c-14.33-10.88-36.17-15.95-68.72-15.95h-6.05v-95.25h6.05
			c32.55,0,54.39-5.07,68.72-15.95c7.83-5.95,13.5-13.61,17.32-23.43c3.91-10.04,5.81-22.1,5.81-36.89c0-6.83-0.62-18.86-1.22-30.49
			c-0.57-11.08-1.12-21.55-1.12-27.22c0-47.81,13.87-82.99,42.39-107.53c16.14-13.89,37.42-24.54,63.25-31.66
			c27.58-7.6,61.35-11.46,100.37-11.46h0.15l-0.89,100.81h-0.15c-35.17,0-55.17,4.44-64.84,14.4c-9.51,9.79-9.06,24.83-8.5,43.87
			c0.15,5.01,0.3,10.2,0.3,15.75c0,6.28,0.52,15.15,1.08,24.55c0.62,10.53,1.26,21.42,1.26,30.04c0,13.61-1.78,26.08-5.29,37.06
			c-3.46,10.82-8.73,20.59-15.66,29.04c-13.45,16.4-33.25,28.42-60.51,36.73c27.27,8.32,47.06,20.34,60.51,36.73
			c6.93,8.45,12.2,18.22,15.66,29.04c3.51,10.98,5.29,23.45,5.29,37.06c0,8.62-0.64,19.51-1.26,30.04
			c-0.55,9.4-1.08,18.27-1.08,24.55c0,5.55-0.15,10.73-0.3,15.75c-0.56,19.04-1.01,34.08,8.5,43.87c9.67,9.96,29.67,14.4,64.84,14.4
			h0.15L339.96,684.66z M38.52,399.73h5.75c32.62,0,54.52,5.09,68.91,16.02c7.88,5.98,13.58,13.69,17.42,23.56
			c3.93,10.07,5.83,22.18,5.83,37c0,6.84-0.62,18.87-1.22,30.5c-0.57,11.08-1.12,21.54-1.12,27.2c0,47.72,13.83,82.82,42.29,107.3
			c16.11,13.86,37.35,24.49,63.13,31.6c27.52,7.59,61.21,11.44,100.14,11.45l-0.89-100.2c-35.17-0.01-55.19-4.48-64.91-14.49
			c-9.59-9.88-9.15-24.98-8.59-44.09c0.15-5.01,0.3-10.19,0.3-15.74c0-6.28,0.52-15.16,1.08-24.56c0.62-10.52,1.26-21.41,1.26-30.02
			c0-13.58-1.78-26.02-5.28-36.97c-3.45-10.79-8.7-20.52-15.61-28.94c-13.49-16.44-33.39-28.48-60.85-36.78l-0.48-0.15l0.48-0.15
			c27.45-8.31,47.36-20.34,60.85-36.78c6.9-8.42,12.16-18.15,15.61-28.94c3.5-10.95,5.28-23.39,5.28-36.97
			c0-8.61-0.64-19.5-1.26-30.02c-0.55-9.4-1.08-18.28-1.08-24.56c0-5.54-0.15-10.72-0.3-15.74c-0.56-19.11-1.01-34.21,8.59-44.09
			c9.72-10.01,29.74-14.48,64.91-14.49l0.89-100.2c-38.93,0.01-72.62,3.86-100.14,11.45c-25.78,7.11-47.02,17.74-63.13,31.6
			C147.93,88,134.1,123.1,134.1,170.82c0,5.66,0.54,16.13,1.11,27.2c0.6,11.63,1.23,23.66,1.23,30.5c0,14.82-1.91,26.92-5.83,37
			c-3.85,9.87-9.54,17.57-17.42,23.56C98.79,300,76.9,305.09,44.27,305.09h-5.75V399.73z"/>
	</g>
	<g>
		<path class="st0" d="M40.7,305.99h5.9c60.82,0,92.01-17.15,92.01-76.42c0-13.25-2.34-46.01-2.34-57.71
			c0-85.77,44.28-150.5,205.86-150.5l-0.89,100.5c-84.96,0-73.19,25.82-73.19,74.17c0,13.26,2.34,38.21,2.34,54.59
			c0,55.04-28.51,86.7-81.84,102.84c53.33,16.14,81.84,47.8,81.84,102.84c0,16.37-2.34,41.33-2.34,54.59
			c0,48.35-11.77,74.17,73.19,74.17l0.89,100.5c-161.58,0-205.86-64.72-205.86-150.5c0-11.7,2.34-44.45,2.34-57.71
			c0-59.27-31.19-76.42-92.01-76.42h-5.9V305.99z"/>
		<path class="st1" d="M342.29,685.71h-0.15c-39.02,0-72.79-3.86-100.37-11.46c-25.83-7.12-47.11-17.77-63.25-31.66
			c-28.53-24.54-42.39-59.72-42.39-107.53c0-5.67,0.54-16.14,1.12-27.22c0.6-11.63,1.22-23.66,1.22-30.49
			c0-14.78-1.9-26.85-5.81-36.89c-3.82-9.81-9.49-17.48-17.32-23.43c-14.33-10.88-36.17-15.95-68.72-15.95h-6.05v-95.25h6.05
			c32.55,0,54.39-5.07,68.72-15.95c7.83-5.95,13.5-13.61,17.32-23.43c3.91-10.04,5.81-22.1,5.81-36.89c0-6.83-0.62-18.86-1.22-30.49
			c-0.57-11.08-1.12-21.55-1.12-27.22c0-47.81,13.87-82.99,42.39-107.53c16.14-13.89,37.42-24.54,63.25-31.66
			c27.58-7.6,61.35-11.46,100.37-11.46h0.15l-0.89,100.81h-0.15c-35.17,0-55.17,4.44-64.84,14.4c-9.51,9.79-9.06,24.83-8.5,43.87
			c0.15,5.01,0.3,10.2,0.3,15.75c0,6.28,0.52,15.15,1.08,24.55c0.62,10.53,1.26,21.42,1.26,30.04c0,13.61-1.78,26.08-5.29,37.06
			c-3.46,10.82-8.73,20.59-15.66,29.04c-13.45,16.4-33.25,28.42-60.51,36.73c27.27,8.32,47.06,20.34,60.51,36.73
			c6.93,8.45,12.2,18.22,15.66,29.04c3.51,10.98,5.29,23.45,5.29,37.06c0,8.62-0.64,19.51-1.26,30.04
			c-0.55,9.4-1.08,18.27-1.08,24.55c0,5.55-0.15,10.73-0.3,15.75c-0.56,19.04-1.01,34.08,8.5,43.87c9.67,9.96,29.67,14.4,64.84,14.4
			h0.15L342.29,685.71z M40.85,400.79h5.75c32.62,0,54.52,5.09,68.91,16.02c7.88,5.98,13.58,13.69,17.42,23.56
			c3.93,10.07,5.83,22.18,5.83,37c0,6.84-0.62,18.87-1.22,30.5c-0.57,11.08-1.12,21.54-1.12,27.2c0,47.72,13.83,82.82,42.29,107.3
			c16.11,13.86,37.35,24.49,63.13,31.6c27.52,7.59,61.21,11.44,100.14,11.45l-0.89-100.2c-35.17-0.01-55.19-4.48-64.91-14.49
			c-9.59-9.88-9.15-24.98-8.59-44.09c0.15-5.01,0.3-10.19,0.3-15.74c0-6.28,0.52-15.16,1.08-24.56c0.62-10.52,1.26-21.41,1.26-30.02
			c0-13.58-1.78-26.02-5.28-36.97c-3.45-10.79-8.7-20.52-15.61-28.94c-13.49-16.44-33.39-28.48-60.85-36.78l-0.48-0.15l0.48-0.15
			c27.45-8.31,47.36-20.34,60.85-36.78c6.9-8.42,12.16-18.15,15.61-28.94c3.5-10.95,5.28-23.39,5.28-36.97
			c0-8.61-0.64-19.5-1.26-30.02c-0.55-9.4-1.08-18.28-1.08-24.56c0-5.54-0.15-10.72-0.3-15.74c-0.56-19.11-1.01-34.21,8.59-44.09
			c9.72-10.01,29.74-14.48,64.91-14.49l0.89-100.2c-38.93,0.01-72.62,3.86-100.14,11.45c-25.78,7.11-47.02,17.74-63.13,31.6
			c-28.45,24.48-42.29,59.58-42.29,107.3c0,5.66,0.54,16.13,1.11,27.2c0.6,11.63,1.23,23.66,1.23,30.5c0,14.82-1.91,26.92-5.83,37
			c-3.85,9.87-9.54,17.57-17.42,23.56c-14.39,10.93-36.28,16.02-68.91,16.02h-5.75V400.79z"/>
	</g>
	<g>
		<path class="st0" d="M43.03,307.05h5.9c60.82,0,92.01-17.15,92.01-76.42c0-13.25-2.34-46.01-2.34-57.71
			c0-85.77,44.28-150.5,205.86-150.5l-0.89,100.5c-84.96,0-73.19,25.82-73.19,74.17c0,13.26,2.34,38.21,2.34,54.59
			c0,55.04-28.51,86.7-81.84,102.84c53.33,16.14,81.84,47.8,81.84,102.84c0,16.37-2.34,41.33-2.34,54.59
			c0,48.35-11.77,74.17,73.19,74.17l0.89,100.5c-161.58,0-205.86-64.72-205.86-150.5c0-11.7,2.34-44.45,2.34-57.71
			c0-59.27-31.19-76.42-92.01-76.42h-5.9V307.05z"/>
		<path class="st1" d="M344.63,686.77h-0.15c-39.02,0-72.79-3.86-100.37-11.46c-25.83-7.12-47.11-17.77-63.25-31.66
			c-28.53-24.54-42.39-59.72-42.39-107.53c0-5.67,0.54-16.14,1.12-27.22c0.6-11.63,1.22-23.66,1.22-30.49
			c0-14.78-1.9-26.85-5.81-36.89c-3.82-9.81-9.49-17.48-17.32-23.43c-14.33-10.88-36.17-15.95-68.72-15.95h-6.05V306.9h6.05
			c32.55,0,54.39-5.07,68.72-15.95c7.83-5.95,13.5-13.61,17.32-23.43c3.91-10.04,5.81-22.1,5.81-36.89c0-6.83-0.62-18.86-1.22-30.49
			c-0.57-11.08-1.12-21.55-1.12-27.22c0-47.81,13.87-82.99,42.39-107.53c16.14-13.89,37.42-24.54,63.25-31.66
			c27.58-7.6,61.35-11.46,100.37-11.46h0.15l-0.89,100.81h-0.15c-35.17,0-55.17,4.44-64.84,14.4c-9.51,9.79-9.06,24.83-8.5,43.87
			c0.15,5.01,0.3,10.2,0.3,15.75c0,6.28,0.52,15.15,1.08,24.55c0.62,10.53,1.26,21.42,1.26,30.04c0,13.61-1.78,26.08-5.29,37.06
			c-3.46,10.82-8.73,20.59-15.66,29.04c-13.45,16.4-33.25,28.42-60.51,36.73c27.27,8.32,47.06,20.34,60.51,36.73
			c6.93,8.45,12.2,18.22,15.66,29.04c3.51,10.98,5.29,23.45,5.29,37.06c0,8.62-0.64,19.51-1.26,30.04
			c-0.55,9.4-1.08,18.27-1.08,24.55c0,5.55-0.15,10.73-0.3,15.75c-0.56,19.04-1.01,34.08,8.5,43.87c9.67,9.96,29.67,14.4,64.84,14.4
			h0.15L344.63,686.77z M43.18,401.84h5.75c32.62,0,54.52,5.09,68.91,16.02c7.88,5.98,13.58,13.69,17.42,23.56
			c3.93,10.07,5.83,22.18,5.83,37c0,6.84-0.62,18.87-1.22,30.5c-0.57,11.08-1.12,21.54-1.12,27.2c0,47.72,13.83,82.82,42.29,107.3
			c16.11,13.86,37.35,24.49,63.13,31.6c27.52,7.59,61.21,11.44,100.14,11.45l-0.89-100.2c-35.17-0.01-55.19-4.48-64.91-14.49
			c-9.59-9.88-9.15-24.98-8.59-44.09c0.15-5.01,0.3-10.19,0.3-15.74c0-6.28,0.52-15.16,1.08-24.56c0.62-10.52,1.26-21.41,1.26-30.02
			c0-13.58-1.78-26.02-5.28-36.97c-3.45-10.79-8.7-20.52-15.61-28.94c-13.49-16.44-33.39-28.48-60.85-36.78l-0.48-0.15l0.48-0.15
			c27.45-8.31,47.36-20.34,60.85-36.78c6.9-8.42,12.16-18.15,15.61-28.94c3.5-10.95,5.28-23.39,5.28-36.97
			c0-8.61-0.64-19.5-1.26-30.02c-0.55-9.4-1.08-18.28-1.08-24.56c0-5.54-0.15-10.72-0.3-15.74c-0.56-19.11-1.01-34.21,8.59-44.09
			c9.72-10.01,29.74-14.48,64.91-14.49l0.89-100.2c-38.93,0.01-72.62,3.86-100.14,11.45c-25.78,7.11-47.02,17.74-63.13,31.6
			c-28.45,24.48-42.29,59.58-42.29,107.3c0,5.66,0.54,16.13,1.11,27.2c0.6,11.63,1.23,23.66,1.23,30.5c0,14.82-1.91,26.92-5.83,37
			c-3.85,9.87-9.54,17.57-17.42,23.56c-14.39,10.93-36.28,16.02-68.91,16.02h-5.75V401.84z"/>
	</g>
	<g>
		<path class="st0" d="M45.36,308.1h5.9c60.82,0,92.01-17.15,92.01-76.42c0-13.25-2.34-46.01-2.34-57.71
			c0-85.77,44.28-150.5,205.86-150.5l-0.89,100.5c-84.96,0-73.19,25.82-73.19,74.17c0,13.26,2.34,38.21,2.34,54.59
			c0,55.04-28.51,86.7-81.84,102.84c53.33,16.14,81.84,47.8,81.84,102.84c0,16.37-2.34,41.33-2.34,54.59
			c0,48.35-11.77,74.17,73.19,74.17l0.89,100.5c-161.58,0-205.86-64.72-205.86-150.5c0-11.7,2.34-44.45,2.34-57.71
			c0-59.27-31.19-76.42-92.01-76.42h-5.9V308.1z"/>
		<path class="st1" d="M346.96,687.82h-0.15c-39.02,0-72.79-3.86-100.37-11.46c-25.83-7.12-47.11-17.77-63.25-31.66
			c-28.53-24.54-42.39-59.72-42.39-107.53c0-5.67,0.54-16.14,1.12-27.22c0.6-11.63,1.22-23.66,1.22-30.49
			c0-14.78-1.9-26.85-5.81-36.89c-3.82-9.81-9.49-17.48-17.32-23.43c-14.33-10.88-36.17-15.95-68.72-15.95h-6.05v-95.25h6.05
			c32.55,0,54.39-5.07,68.72-15.95c7.83-5.95,13.5-13.61,17.32-23.43c3.91-10.04,5.81-22.1,5.81-36.89c0-6.83-0.62-18.86-1.22-30.49
			c-0.57-11.08-1.12-21.55-1.12-27.22c0-47.81,13.87-82.99,42.39-107.53c16.14-13.89,37.42-24.54,63.25-31.66
			c27.58-7.6,61.35-11.46,100.37-11.46h0.15l-0.89,100.81h-0.15c-35.17,0-55.17,4.44-64.84,14.4c-9.51,9.79-9.06,24.83-8.5,43.87
			c0.15,5.01,0.3,10.2,0.3,15.75c0,6.28,0.52,15.15,1.08,24.55c0.62,10.53,1.26,21.42,1.26,30.04c0,13.61-1.78,26.08-5.29,37.06
			c-3.46,10.82-8.73,20.59-15.66,29.04c-13.45,16.4-33.25,28.42-60.51,36.73c27.27,8.32,47.06,20.34,60.51,36.73
			c6.93,8.45,12.2,18.22,15.66,29.04c3.51,10.98,5.29,23.45,5.29,37.06c0,8.62-0.64,19.51-1.26,30.04
			c-0.55,9.4-1.08,18.27-1.08,24.55c0,5.55-0.15,10.73-0.3,15.75c-0.56,19.04-1.01,34.08,8.5,43.87c9.67,9.96,29.67,14.4,64.84,14.4
			h0.15L346.96,687.82z M45.52,402.9h5.75c32.62,0,54.52,5.09,68.91,16.02c7.88,5.98,13.58,13.69,17.42,23.56
			c3.93,10.07,5.83,22.18,5.83,37c0,6.84-0.62,18.87-1.22,30.5c-0.57,11.08-1.12,21.54-1.12,27.2c0,47.72,13.83,82.82,42.29,107.3
			c16.11,13.86,37.35,24.49,63.13,31.6c27.52,7.59,61.21,11.44,100.14,11.45l-0.89-100.2c-35.17-0.01-55.19-4.48-64.91-14.49
			c-9.59-9.88-9.15-24.98-8.59-44.09c0.15-5.01,0.3-10.19,0.3-15.74c0-6.28,0.52-15.16,1.08-24.56c0.62-10.52,1.26-21.41,1.26-30.02
			c0-13.58-1.78-26.02-5.28-36.97c-3.45-10.79-8.7-20.52-15.61-28.94c-13.49-16.44-33.39-28.48-60.85-36.78l-0.48-0.15l0.48-0.15
			c27.45-8.31,47.36-20.34,60.85-36.78c6.9-8.42,12.16-18.15,15.61-28.94c3.5-10.95,5.28-23.39,5.28-36.97
			c0-8.61-0.64-19.5-1.26-30.02c-0.55-9.4-1.08-18.28-1.08-24.56c0-5.54-0.15-10.72-0.3-15.74c-0.56-19.11-1.01-34.21,8.59-44.09
			c9.72-10.01,29.74-14.48,64.91-14.49l0.89-100.2c-38.93,0.01-72.62,3.86-100.14,11.45c-25.78,7.11-47.02,17.74-63.13,31.6
			c-28.45,24.48-42.29,59.58-42.29,107.3c0,5.66,0.54,16.13,1.11,27.2c0.6,11.63,1.23,23.66,1.23,30.5c0,14.82-1.91,26.92-5.83,37
			c-3.85,9.87-9.54,17.57-17.42,23.56c-14.39,10.93-36.28,16.02-68.91,16.02h-5.75V402.9z"/>
	</g>
	<g>
		<path class="st0" d="M47.69,309.16h5.9c60.82,0,92.01-17.15,92.01-76.42c0-13.25-2.34-46.01-2.34-57.71
			c0-85.77,44.28-150.5,205.86-150.5l-0.89,100.5c-84.96,0-73.19,25.82-73.19,74.17c0,13.26,2.34,38.21,2.34,54.59
			c0,55.04-28.51,86.7-81.84,102.84c53.33,16.14,81.84,47.8,81.84,102.84c0,16.37-2.34,41.33-2.34,54.59
			c0,48.35-11.77,74.17,73.19,74.17l0.89,100.5c-161.58,0-205.86-64.72-205.86-150.5c0-11.7,2.34-44.45,2.34-57.71
			c0-59.27-31.19-76.42-92.01-76.42h-5.9V309.16z"/>
		<path class="st1" d="M349.29,688.88h-0.15c-39.02,0-72.79-3.86-100.37-11.46c-25.83-7.12-47.11-17.77-63.25-31.66
			c-28.53-24.54-42.39-59.72-42.39-107.53c0-5.67,0.54-16.14,1.12-27.22c0.6-11.63,1.22-23.66,1.22-30.49
			c0-14.78-1.9-26.85-5.81-36.89c-3.82-9.81-9.49-17.48-17.32-23.43c-14.33-10.88-36.17-15.95-68.72-15.95h-6.05v-95.25h6.05
			c32.55,0,54.39-5.07,68.72-15.95c7.83-5.95,13.5-13.61,17.32-23.43c3.91-10.04,5.81-22.1,5.81-36.89c0-6.83-0.62-18.86-1.22-30.49
			c-0.57-11.08-1.12-21.55-1.12-27.22c0-47.81,13.87-82.99,42.39-107.53c16.14-13.89,37.42-24.54,63.25-31.66
			c27.58-7.6,61.35-11.46,100.37-11.46h0.15l-0.89,100.81h-0.15c-35.17,0-55.17,4.44-64.84,14.4c-9.51,9.79-9.06,24.83-8.5,43.87
			c0.15,5.01,0.3,10.2,0.3,15.75c0,6.28,0.52,15.15,1.08,24.55c0.62,10.53,1.26,21.42,1.26,30.04c0,13.61-1.78,26.08-5.29,37.06
			c-3.46,10.82-8.73,20.59-15.66,29.04c-13.45,16.4-33.25,28.42-60.51,36.73c27.27,8.32,47.06,20.34,60.51,36.73
			c6.93,8.45,12.2,18.22,15.66,29.04c3.51,10.98,5.29,23.45,5.29,37.06c0,8.62-0.64,19.51-1.26,30.04
			c-0.55,9.4-1.08,18.27-1.08,24.55c0,5.55-0.15,10.73-0.3,15.75c-0.56,19.04-1.01,34.08,8.5,43.87c9.67,9.96,29.67,14.4,64.84,14.4
			h0.15L349.29,688.88z M47.85,403.95h5.75c32.62,0,54.52,5.09,68.91,16.02c7.88,5.98,13.58,13.69,17.42,23.56
			c3.93,10.07,5.83,22.18,5.83,37c0,6.84-0.62,18.87-1.22,30.5c-0.57,11.08-1.12,21.54-1.12,27.2c0,47.72,13.83,82.82,42.29,107.3
			c16.11,13.86,37.35,24.49,63.13,31.6c27.52,7.59,61.21,11.44,100.14,11.45l-0.89-100.2c-35.17-0.01-55.19-4.48-64.91-14.49
			c-9.59-9.88-9.15-24.98-8.59-44.09c0.15-5.01,0.3-10.19,0.3-15.74c0-6.28,0.52-15.16,1.08-24.56c0.62-10.52,1.26-21.41,1.26-30.02
			c0-13.58-1.78-26.02-5.28-36.97c-3.45-10.79-8.7-20.52-15.61-28.94c-13.49-16.44-33.39-28.48-60.85-36.78l-0.48-0.15l0.48-0.15
			c27.45-8.31,47.36-20.34,60.85-36.78c6.9-8.42,12.16-18.15,15.61-28.94c3.5-10.95,5.28-23.39,5.28-36.97
			c0-8.61-0.64-19.5-1.26-30.02c-0.55-9.4-1.08-18.28-1.08-24.56c0-5.54-0.15-10.72-0.3-15.74c-0.56-19.11-1.01-34.21,8.59-44.09
			c9.72-10.01,29.74-14.48,64.91-14.49l0.89-100.2c-38.93,0.01-72.62,3.86-100.14,11.45c-25.78,7.11-47.02,17.74-63.13,31.6
			c-28.45,24.48-42.29,59.58-42.29,107.3c0,5.66,0.54,16.13,1.11,27.2c0.6,11.63,1.23,23.66,1.23,30.5c0,14.82-1.91,26.92-5.83,37
			c-3.85,9.87-9.54,17.57-17.42,23.56c-14.39,10.93-36.28,16.02-68.91,16.02h-5.75V403.95z"/>
	</g>
	<g>
		<path class="st0" d="M50.03,310.21h5.9c60.82,0,92.01-17.15,92.01-76.42c0-13.25-2.34-46.01-2.34-57.71
			c0-85.77,44.28-150.5,205.86-150.5l-0.89,100.5c-84.96,0-73.19,25.82-73.19,74.17c0,13.26,2.34,38.21,2.34,54.59
			c0,55.04-28.51,86.7-81.84,102.84c53.33,16.14,81.84,47.8,81.84,102.84c0,16.37-2.34,41.33-2.34,54.59
			c0,48.35-11.77,74.17,73.19,74.17l0.89,100.5c-161.58,0-205.86-64.72-205.86-150.5c0-11.7,2.34-44.45,2.34-57.71
			c0-59.27-31.19-76.42-92.01-76.42h-5.9V310.21z"/>
		<path class="st1" d="M351.62,689.93h-0.15c-39.02,0-72.79-3.86-100.37-11.46c-25.83-7.12-47.11-17.77-63.25-31.66
			c-28.53-24.54-42.39-59.72-42.39-107.53c0-5.67,0.54-16.14,1.12-27.22c0.6-11.63,1.22-23.66,1.22-30.49
			c0-14.78-1.9-26.85-5.81-36.89c-3.82-9.81-9.49-17.48-17.32-23.43c-14.33-10.88-36.17-15.95-68.72-15.95h-6.05v-95.25h6.05
			c32.55,0,54.39-5.07,68.72-15.95c7.83-5.95,13.5-13.61,17.32-23.43c3.91-10.04,5.81-22.1,5.81-36.89c0-6.83-0.62-18.86-1.22-30.49
			c-0.57-11.08-1.12-21.55-1.12-27.22c0-47.81,13.87-82.99,42.39-107.53c16.14-13.89,37.42-24.54,63.25-31.66
			c27.58-7.6,61.35-11.46,100.37-11.46h0.15l-0.89,100.81h-0.15c-35.17,0-55.17,4.44-64.84,14.4c-9.51,9.79-9.06,24.83-8.5,43.87
			c0.15,5.01,0.3,10.2,0.3,15.75c0,6.28,0.52,15.15,1.08,24.55c0.62,10.53,1.26,21.42,1.26,30.04c0,13.61-1.78,26.08-5.29,37.06
			c-3.46,10.82-8.73,20.59-15.66,29.04c-13.45,16.4-33.25,28.42-60.51,36.73c27.27,8.32,47.06,20.34,60.51,36.73
			c6.93,8.45,12.2,18.22,15.66,29.04c3.51,10.98,5.29,23.45,5.29,37.06c0,8.62-0.64,19.51-1.26,30.04
			c-0.55,9.4-1.08,18.27-1.08,24.55c0,5.55-0.15,10.73-0.3,15.75c-0.56,19.04-1.01,34.08,8.5,43.87c9.67,9.96,29.67,14.4,64.84,14.4
			h0.15L351.62,689.93z M50.18,405.01h5.75c32.62,0,54.52,5.09,68.91,16.02c7.88,5.98,13.58,13.69,17.42,23.56
			c3.93,10.07,5.83,22.18,5.83,37c0,6.84-0.62,18.87-1.22,30.5c-0.57,11.08-1.12,21.54-1.12,27.2c0,47.72,13.83,82.82,42.29,107.3
			c16.11,13.86,37.35,24.49,63.13,31.6c27.52,7.59,61.21,11.44,100.14,11.45l-0.89-100.2c-35.17-0.01-55.19-4.48-64.91-14.49
			c-9.59-9.88-9.15-24.98-8.59-44.09c0.15-5.01,0.3-10.19,0.3-15.74c0-6.28,0.52-15.16,1.08-24.56c0.62-10.52,1.26-21.41,1.26-30.02
			c0-13.58-1.78-26.02-5.28-36.97c-3.45-10.79-8.7-20.52-15.61-28.94c-13.49-16.44-33.39-28.48-60.85-36.78l-0.48-0.15l0.48-0.15
			c27.45-8.31,47.36-20.34,60.85-36.78c6.9-8.42,12.16-18.15,15.61-28.94c3.5-10.95,5.28-23.39,5.28-36.97
			c0-8.61-0.64-19.5-1.26-30.02c-0.55-9.4-1.08-18.28-1.08-24.56c0-5.54-0.15-10.72-0.3-15.74c-0.56-19.11-1.01-34.21,8.59-44.09
			c9.72-10.01,29.74-14.48,64.91-14.49l0.89-100.2c-38.93,0.01-72.62,3.86-100.14,11.45c-25.78,7.11-47.02,17.74-63.13,31.6
			c-28.45,24.48-42.29,59.58-42.29,107.3c0,5.66,0.54,16.13,1.11,27.2c0.6,11.63,1.23,23.66,1.23,30.5c0,14.82-1.91,26.92-5.83,37
			c-3.85,9.87-9.54,17.57-17.42,23.56c-14.39,10.93-36.28,16.02-68.91,16.02h-5.75V405.01z"/>
	</g>
	<g>
		<path class="st0" d="M52.36,311.27h5.9c60.82,0,92.01-17.15,92.01-76.42c0-13.25-2.34-46.01-2.34-57.71
			c0-85.77,44.28-150.5,205.86-150.5l-0.89,100.5c-84.96,0-73.19,25.82-73.19,74.17c0,13.26,2.34,38.21,2.34,54.59
			c0,55.04-28.51,86.7-81.84,102.84c53.33,16.14,81.84,47.8,81.84,102.84c0,16.37-2.34,41.33-2.34,54.59
			c0,48.35-11.77,74.17,73.19,74.17l0.89,100.5c-161.58,0-205.86-64.72-205.86-150.5c0-11.7,2.34-44.45,2.34-57.71
			c0-59.27-31.19-76.42-92.01-76.42h-5.9V311.27z"/>
		<path class="st1" d="M353.95,690.99h-0.15c-39.02,0-72.79-3.86-100.37-11.46c-25.83-7.12-47.11-17.77-63.25-31.66
			c-28.53-24.54-42.39-59.72-42.39-107.53c0-5.67,0.54-16.14,1.12-27.22c0.6-11.63,1.22-23.66,1.22-30.49
			c0-14.78-1.9-26.85-5.81-36.89c-3.82-9.81-9.49-17.48-17.32-23.43c-14.33-10.88-36.17-15.95-68.72-15.95H52.2v-95.25h6.05
			c32.55,0,54.39-5.07,68.72-15.95c7.83-5.95,13.5-13.61,17.32-23.43c3.91-10.04,5.81-22.1,5.81-36.89c0-6.83-0.62-18.86-1.22-30.49
			c-0.57-11.08-1.12-21.55-1.12-27.22c0-47.81,13.87-82.99,42.39-107.53c16.14-13.89,37.42-24.54,63.25-31.66
			c27.58-7.6,61.35-11.46,100.37-11.46h0.15l-0.89,100.81h-0.15c-35.17,0-55.17,4.44-64.84,14.4c-9.51,9.79-9.06,24.83-8.5,43.87
			c0.15,5.01,0.3,10.2,0.3,15.75c0,6.28,0.52,15.15,1.08,24.55c0.62,10.53,1.26,21.42,1.26,30.04c0,13.61-1.78,26.08-5.29,37.06
			c-3.46,10.82-8.73,20.59-15.66,29.04c-13.45,16.4-33.25,28.42-60.51,36.73c27.27,8.32,47.06,20.34,60.51,36.73
			c6.93,8.45,12.2,18.22,15.66,29.04c3.51,10.98,5.29,23.45,5.29,37.06c0,8.62-0.64,19.51-1.26,30.04
			c-0.55,9.4-1.08,18.27-1.08,24.55c0,5.55-0.15,10.73-0.3,15.75c-0.56,19.04-1.01,34.08,8.5,43.87c9.67,9.96,29.67,14.4,64.84,14.4
			h0.15L353.95,690.99z M52.51,406.06h5.75c32.62,0,54.52,5.09,68.91,16.02c7.88,5.98,13.58,13.69,17.42,23.56
			c3.93,10.07,5.83,22.18,5.83,37c0,6.84-0.62,18.87-1.22,30.5c-0.57,11.08-1.12,21.54-1.12,27.2c0,47.72,13.83,82.82,42.29,107.3
			c16.11,13.86,37.35,24.49,63.13,31.6c27.52,7.59,61.21,11.44,100.14,11.45l-0.89-100.2c-35.17-0.01-55.19-4.48-64.91-14.49
			c-9.59-9.88-9.15-24.98-8.59-44.09c0.15-5.01,0.3-10.19,0.3-15.74c0-6.28,0.52-15.16,1.08-24.56c0.62-10.52,1.26-21.41,1.26-30.02
			c0-13.58-1.78-26.02-5.28-36.97c-3.45-10.79-8.7-20.52-15.61-28.94c-13.49-16.44-33.39-28.48-60.85-36.78l-0.48-0.15l0.48-0.15
			c27.45-8.31,47.36-20.34,60.85-36.78c6.9-8.42,12.16-18.15,15.61-28.94c3.5-10.95,5.28-23.39,5.28-36.97
			c0-8.61-0.64-19.5-1.26-30.02c-0.55-9.4-1.08-18.28-1.08-24.56c0-5.54-0.15-10.72-0.3-15.74c-0.56-19.11-1.01-34.21,8.59-44.09
			c9.72-10.01,29.74-14.48,64.91-14.49l0.89-100.2c-38.93,0.01-72.62,3.86-100.14,11.45c-25.78,7.11-47.02,17.74-63.13,31.6
			c-28.45,24.48-42.29,59.58-42.29,107.3c0,5.66,0.54,16.13,1.11,27.2c0.6,11.63,1.23,23.66,1.23,30.5c0,14.82-1.91,26.92-5.83,37
			c-3.85,9.87-9.54,17.57-17.42,23.56c-14.39,10.93-36.28,16.02-68.91,16.02h-5.75V406.06z"/>
	</g>
	<g>
		<path class="st0" d="M54.69,312.32h5.9c60.82,0,92.01-17.15,92.01-76.42c0-13.25-2.34-46.01-2.34-57.71
			c0-85.77,44.28-150.5,205.86-150.5l-0.89,100.5c-84.96,0-73.19,25.82-73.19,74.17c0,13.26,2.34,38.21,2.34,54.59
			c0,55.04-28.51,86.7-81.84,102.84c53.33,16.14,81.84,47.8,81.84,102.84c0,16.37-2.34,41.33-2.34,54.59
			c0,48.35-11.77,74.17,73.19,74.17l0.89,100.5c-161.58,0-205.86-64.72-205.86-150.5c0-11.7,2.34-44.45,2.34-57.71
			c0-59.27-31.19-76.42-92.01-76.42h-5.9V312.32z"/>
		<path class="st1" d="M356.28,692.04h-0.15c-39.02,0-72.79-3.86-100.37-11.46c-25.83-7.12-47.11-17.77-63.25-31.66
			c-28.53-24.54-42.39-59.72-42.39-107.53c0-5.67,0.54-16.14,1.12-27.22c0.6-11.63,1.22-23.66,1.22-30.49
			c0-14.78-1.9-26.85-5.81-36.89c-3.82-9.81-9.49-17.48-17.32-23.43c-14.33-10.88-36.17-15.95-68.72-15.95h-6.05v-95.25h6.05
			c32.55,0,54.39-5.07,68.72-15.95c7.83-5.95,13.5-13.61,17.32-23.43c3.91-10.04,5.81-22.1,5.81-36.89c0-6.83-0.62-18.86-1.22-30.49
			c-0.57-11.08-1.12-21.55-1.12-27.22c0-47.81,13.87-82.99,42.39-107.53c16.14-13.89,37.42-24.54,63.25-31.66
			c27.58-7.6,61.35-11.46,100.37-11.46h0.15l-0.89,100.81h-0.15c-35.17,0-55.17,4.44-64.84,14.4c-9.51,9.79-9.06,24.83-8.5,43.87
			c0.15,5.01,0.3,10.2,0.3,15.75c0,6.28,0.52,15.15,1.08,24.55c0.62,10.53,1.26,21.42,1.26,30.04c0,13.61-1.78,26.08-5.29,37.06
			c-3.46,10.82-8.73,20.59-15.66,29.04c-13.45,16.4-33.25,28.42-60.51,36.73c27.27,8.32,47.06,20.34,60.51,36.73
			c6.93,8.45,12.2,18.22,15.66,29.04c3.51,10.98,5.29,23.45,5.29,37.06c0,8.62-0.64,19.51-1.26,30.04
			c-0.55,9.4-1.08,18.27-1.08,24.55c0,5.55-0.15,10.73-0.3,15.75c-0.56,19.04-1.01,34.08,8.5,43.87c9.67,9.96,29.67,14.4,64.84,14.4
			h0.15L356.28,692.04z M54.84,407.12h5.75c32.62,0,54.52,5.09,68.91,16.02c7.88,5.98,13.58,13.69,17.42,23.56
			c3.93,10.07,5.83,22.18,5.83,37c0,6.84-0.62,18.87-1.22,30.5c-0.57,11.08-1.12,21.54-1.12,27.2c0,47.72,13.83,82.82,42.29,107.3
			c16.11,13.86,37.35,24.49,63.13,31.6c27.52,7.59,61.21,11.44,100.14,11.45l-0.89-100.2c-35.17-0.01-55.19-4.48-64.91-14.49
			c-9.59-9.88-9.15-24.98-8.59-44.09c0.15-5.01,0.3-10.19,0.3-15.74c0-6.28,0.52-15.16,1.08-24.56c0.62-10.52,1.26-21.41,1.26-30.02
			c0-13.58-1.78-26.02-5.28-36.97c-3.45-10.79-8.7-20.52-15.61-28.94c-13.49-16.44-33.39-28.48-60.85-36.78l-0.48-0.15l0.48-0.15
			c27.45-8.31,47.36-20.34,60.85-36.78c6.9-8.42,12.16-18.15,15.61-28.94c3.5-10.95,5.28-23.39,5.28-36.97
			c0-8.61-0.64-19.5-1.26-30.02c-0.55-9.4-1.08-18.28-1.08-24.56c0-5.54-0.15-10.72-0.3-15.74c-0.56-19.11-1.01-34.21,8.59-44.09
			c9.72-10.01,29.74-14.48,64.91-14.49l0.89-100.2c-38.93,0.01-72.62,3.86-100.14,11.45c-25.78,7.11-47.02,17.74-63.13,31.6
			c-28.45,24.48-42.29,59.58-42.29,107.3c0,5.66,0.54,16.13,1.11,27.2c0.6,11.63,1.23,23.66,1.23,30.5c0,14.82-1.91,26.92-5.83,37
			c-3.85,9.87-9.54,17.57-17.42,23.56c-14.39,10.93-36.28,16.02-68.91,16.02h-5.75V407.12z"/>
	</g>
	<g>
		<path class="st0" d="M57.02,313.38h5.9c60.82,0,92.01-17.15,92.01-76.42c0-13.25-2.34-46.01-2.34-57.71
			c0-85.77,44.28-150.5,205.86-150.5l-0.89,100.5c-84.96,0-73.19,25.82-73.19,74.17c0,13.26,2.34,38.21,2.34,54.59
			c0,55.04-28.51,86.7-81.84,102.84c53.33,16.14,81.84,47.8,81.84,102.84c0,16.37-2.34,41.33-2.34,54.59
			c0,48.35-11.77,74.17,73.19,74.17l0.89,100.5c-161.58,0-205.86-64.72-205.86-150.5c0-11.7,2.34-44.45,2.34-57.71
			c0-59.27-31.19-76.42-92.01-76.42h-5.9V313.38z"/>
		<path class="st1" d="M358.61,693.1h-0.15c-39.02,0-72.79-3.86-100.37-11.46c-25.83-7.12-47.11-17.77-63.25-31.66
			c-28.53-24.54-42.39-59.72-42.39-107.53c0-5.67,0.54-16.14,1.12-27.22c0.6-11.63,1.22-23.66,1.22-30.49
			c0-14.78-1.9-26.85-5.81-36.89c-3.82-9.81-9.49-17.48-17.32-23.43c-14.33-10.88-36.17-15.95-68.72-15.95h-6.05v-95.25h6.05
			c32.55,0,54.39-5.07,68.72-15.95c7.83-5.95,13.5-13.61,17.32-23.43c3.91-10.04,5.81-22.1,5.81-36.89c0-6.83-0.62-18.86-1.22-30.49
			c-0.57-11.08-1.12-21.55-1.12-27.22c0-47.81,13.87-82.99,42.39-107.53c16.14-13.89,37.42-24.54,63.25-31.66
			c27.58-7.6,61.35-11.46,100.37-11.46h0.15l-0.89,100.81h-0.15c-35.17,0-55.17,4.44-64.84,14.4c-9.51,9.79-9.06,24.83-8.5,43.87
			c0.15,5.01,0.3,10.2,0.3,15.75c0,6.28,0.52,15.15,1.08,24.55c0.62,10.53,1.26,21.42,1.26,30.04c0,13.61-1.78,26.08-5.29,37.06
			c-3.46,10.82-8.73,20.59-15.66,29.04c-13.45,16.4-33.25,28.42-60.51,36.73c27.27,8.32,47.06,20.34,60.51,36.73
			c6.93,8.45,12.2,18.22,15.66,29.04c3.51,10.98,5.29,23.45,5.29,37.06c0,8.62-0.64,19.51-1.26,30.04
			c-0.55,9.4-1.08,18.27-1.08,24.55c0,5.55-0.15,10.73-0.3,15.75c-0.56,19.04-1.01,34.08,8.5,43.87c9.67,9.96,29.67,14.4,64.84,14.4
			h0.15L358.61,693.1z M57.17,408.17h5.75c32.62,0,54.52,5.09,68.91,16.02c7.88,5.98,13.58,13.69,17.42,23.56
			c3.93,10.07,5.83,22.18,5.83,37c0,6.84-0.62,18.87-1.22,30.5c-0.57,11.08-1.12,21.54-1.12,27.2c0,47.72,13.83,82.82,42.29,107.3
			c16.11,13.86,37.35,24.49,63.13,31.6c27.52,7.59,61.21,11.44,100.14,11.45l-0.89-100.2c-35.17-0.01-55.19-4.48-64.91-14.49
			c-9.59-9.88-9.15-24.98-8.59-44.09c0.15-5.01,0.3-10.19,0.3-15.74c0-6.28,0.52-15.16,1.08-24.56c0.62-10.52,1.26-21.41,1.26-30.02
			c0-13.58-1.78-26.02-5.28-36.97c-3.45-10.79-8.7-20.52-15.61-28.94c-13.49-16.44-33.39-28.48-60.85-36.78l-0.48-0.15l0.48-0.15
			c27.45-8.31,47.36-20.34,60.85-36.78c6.9-8.42,12.16-18.15,15.61-28.94c3.5-10.95,5.28-23.39,5.28-36.97
			c0-8.61-0.64-19.5-1.26-30.02c-0.55-9.4-1.08-18.28-1.08-24.56c0-5.54-0.15-10.72-0.3-15.74c-0.56-19.11-1.01-34.21,8.59-44.09
			c9.72-10.01,29.74-14.48,64.91-14.49l0.89-100.2c-38.93,0.01-72.62,3.86-100.14,11.45c-25.78,7.11-47.02,17.74-63.13,31.6
			c-28.45,24.48-42.29,59.58-42.29,107.3c0,5.66,0.54,16.13,1.11,27.2c0.6,11.63,1.23,23.66,1.23,30.5c0,14.82-1.91,26.92-5.83,37
			c-3.85,9.87-9.54,17.57-17.42,23.56c-14.39,10.93-36.28,16.02-68.91,16.02h-5.75V408.17z"/>
	</g>
	<g>
		<path class="st0" d="M59.35,314.43h5.9c60.82,0,92.01-17.15,92.01-76.42c0-13.25-2.34-46.01-2.34-57.71
			c0-85.77,44.28-150.5,205.86-150.5l-0.89,100.5c-84.96,0-73.19,25.82-73.19,74.17c0,13.26,2.34,38.21,2.34,54.59
			c0,55.04-28.51,86.7-81.84,102.84c53.33,16.14,81.84,47.8,81.84,102.84c0,16.37-2.34,41.33-2.34,54.59
			c0,48.35-11.77,74.17,73.19,74.17l0.89,100.5c-161.58,0-205.86-64.72-205.86-150.5c0-11.7,2.34-44.45,2.34-57.71
			c0-59.27-31.19-76.42-92.01-76.42h-5.9V314.43z"/>
		<path class="st1" d="M360.94,694.15h-0.15c-39.02,0-72.79-3.86-100.37-11.46c-25.83-7.12-47.11-17.77-63.25-31.66
			c-28.53-24.54-42.39-59.72-42.39-107.53c0-5.67,0.54-16.14,1.12-27.22c0.6-11.63,1.22-23.66,1.22-30.49
			c0-14.78-1.9-26.85-5.81-36.89c-3.82-9.81-9.49-17.48-17.32-23.43c-14.33-10.88-36.17-15.95-68.72-15.95H59.2v-95.25h6.05
			c32.55,0,54.39-5.07,68.72-15.95c7.83-5.95,13.5-13.61,17.32-23.43c3.91-10.04,5.81-22.1,5.81-36.89c0-6.83-0.62-18.86-1.22-30.49
			c-0.57-11.08-1.12-21.55-1.12-27.22c0-47.81,13.87-82.99,42.39-107.53c16.14-13.89,37.42-24.54,63.25-31.66
			c27.58-7.6,61.35-11.46,100.37-11.46h0.15l-0.89,100.81h-0.15c-35.17,0-55.17,4.44-64.84,14.4c-9.51,9.79-9.06,24.83-8.5,43.87
			c0.15,5.01,0.3,10.2,0.3,15.75c0,6.28,0.52,15.15,1.08,24.55c0.62,10.53,1.26,21.42,1.26,30.04c0,13.61-1.78,26.08-5.29,37.06
			c-3.46,10.82-8.73,20.59-15.66,29.04c-13.45,16.4-33.25,28.42-60.51,36.73c27.27,8.32,47.06,20.34,60.51,36.73
			c6.93,8.45,12.2,18.22,15.66,29.04c3.51,10.98,5.29,23.45,5.29,37.06c0,8.62-0.64,19.51-1.26,30.04
			c-0.55,9.4-1.08,18.27-1.08,24.55c0,5.55-0.15,10.73-0.3,15.75c-0.56,19.04-1.01,34.08,8.5,43.87c9.67,9.96,29.67,14.4,64.84,14.4
			h0.15L360.94,694.15z M59.5,409.23h5.75c32.62,0,54.52,5.09,68.91,16.02c7.88,5.98,13.58,13.69,17.42,23.56
			c3.93,10.07,5.83,22.18,5.83,37c0,6.84-0.62,18.87-1.22,30.5c-0.57,11.08-1.12,21.54-1.12,27.2c0,47.72,13.83,82.82,42.29,107.3
			c16.11,13.86,37.35,24.49,63.13,31.6c27.52,7.59,61.21,11.44,100.14,11.45l-0.89-100.2c-35.17-0.01-55.19-4.48-64.91-14.49
			c-9.59-9.88-9.15-24.98-8.59-44.09c0.15-5.01,0.3-10.19,0.3-15.74c0-6.28,0.52-15.16,1.08-24.56c0.62-10.52,1.26-21.41,1.26-30.02
			c0-13.58-1.78-26.02-5.28-36.97c-3.45-10.79-8.7-20.52-15.61-28.94c-13.49-16.44-33.39-28.48-60.85-36.78l-0.48-0.15l0.48-0.15
			c27.45-8.31,47.36-20.34,60.85-36.78c6.9-8.42,12.16-18.15,15.61-28.94c3.5-10.95,5.28-23.39,5.28-36.97
			c0-8.61-0.64-19.5-1.26-30.02c-0.55-9.4-1.08-18.28-1.08-24.56c0-5.54-0.15-10.72-0.3-15.74c-0.56-19.11-1.01-34.21,8.59-44.09
			c9.72-10.01,29.74-14.48,64.91-14.49l0.89-100.2c-38.93,0.01-72.62,3.86-100.14,11.45c-25.78,7.11-47.02,17.74-63.13,31.6
			c-28.45,24.48-42.29,59.58-42.29,107.3c0,5.66,0.54,16.13,1.11,27.2c0.6,11.63,1.23,23.66,1.23,30.5c0,14.82-1.91,26.92-5.83,37
			c-3.85,9.87-9.54,17.57-17.42,23.56c-14.39,10.93-36.28,16.02-68.91,16.02H59.5V409.23z"/>
	</g>
	<g>
		<path class="st0" d="M61.68,315.49h5.9c60.82,0,92.01-17.15,92.01-76.42c0-13.25-2.34-46.01-2.34-57.71
			c0-85.77,44.28-150.5,205.86-150.5l-0.89,100.5c-84.96,0-73.19,25.82-73.19,74.17c0,13.26,2.34,38.21,2.34,54.59
			c0,55.04-28.51,86.7-81.84,102.84c53.33,16.14,81.84,47.8,81.84,102.84c0,16.37-2.34,41.33-2.34,54.59
			c0,48.35-11.77,74.17,73.19,74.17l0.89,100.5c-161.58,0-205.86-64.72-205.86-150.5c0-11.7,2.34-44.45,2.34-57.71
			c0-59.27-31.19-76.42-92.01-76.42h-5.9V315.49z"/>
		<path class="st1" d="M363.27,695.21h-0.15c-39.02,0-72.79-3.86-100.37-11.46c-25.83-7.12-47.11-17.77-63.25-31.66
			c-28.53-24.54-42.39-59.72-42.39-107.53c0-5.67,0.54-16.14,1.12-27.22c0.6-11.63,1.22-23.66,1.22-30.49
			c0-14.78-1.9-26.85-5.81-36.89c-3.82-9.81-9.49-17.48-17.32-23.43c-14.33-10.88-36.17-15.95-68.72-15.95h-6.05v-95.25h6.05
			c32.55,0,54.39-5.07,68.72-15.95c7.83-5.95,13.5-13.61,17.32-23.43c3.91-10.04,5.81-22.1,5.81-36.89c0-6.83-0.62-18.86-1.22-30.49
			c-0.57-11.08-1.12-21.55-1.12-27.22c0-47.81,13.87-82.99,42.39-107.53c16.14-13.89,37.42-24.54,63.25-31.66
			c27.58-7.6,61.35-11.46,100.37-11.46h0.15l-0.89,100.81h-0.15c-35.17,0-55.17,4.44-64.84,14.4c-9.51,9.79-9.06,24.83-8.5,43.87
			c0.15,5.01,0.3,10.2,0.3,15.75c0,6.28,0.52,15.15,1.08,24.55c0.62,10.53,1.26,21.42,1.26,30.04c0,13.61-1.78,26.08-5.29,37.06
			c-3.46,10.82-8.73,20.59-15.66,29.04c-13.45,16.4-33.25,28.42-60.51,36.73c27.27,8.32,47.06,20.34,60.51,36.73
			c6.93,8.45,12.2,18.22,15.66,29.04c3.51,10.98,5.29,23.45,5.29,37.06c0,8.62-0.64,19.51-1.26,30.04
			c-0.55,9.4-1.08,18.27-1.08,24.55c0,5.55-0.15,10.73-0.3,15.75c-0.56,19.04-1.01,34.08,8.5,43.87c9.67,9.96,29.67,14.4,64.84,14.4
			h0.15L363.27,695.21z M61.83,410.28h5.75c32.62,0,54.52,5.09,68.91,16.02c7.88,5.98,13.58,13.69,17.42,23.56
			c3.93,10.07,5.83,22.18,5.83,37c0,6.84-0.62,18.87-1.22,30.5c-0.57,11.08-1.12,21.54-1.12,27.2c0,47.72,13.83,82.82,42.29,107.3
			c16.11,13.86,37.35,24.49,63.13,31.6c27.52,7.59,61.21,11.44,100.14,11.45l-0.89-100.2c-35.17-0.01-55.19-4.48-64.91-14.49
			c-9.59-9.88-9.15-24.98-8.59-44.09c0.15-5.01,0.3-10.19,0.3-15.74c0-6.28,0.52-15.16,1.08-24.56c0.62-10.52,1.26-21.41,1.26-30.02
			c0-13.58-1.78-26.02-5.28-36.97c-3.45-10.79-8.7-20.52-15.61-28.94c-13.49-16.44-33.39-28.48-60.85-36.78l-0.48-0.15l0.48-0.15
			c27.45-8.31,47.36-20.34,60.85-36.78c6.9-8.42,12.16-18.15,15.61-28.94c3.5-10.95,5.28-23.39,5.28-36.97
			c0-8.61-0.64-19.5-1.26-30.02c-0.55-9.4-1.08-18.28-1.08-24.56c0-5.54-0.15-10.72-0.3-15.74c-0.56-19.11-1.01-34.21,8.59-44.09
			c9.72-10.01,29.74-14.48,64.91-14.49l0.89-100.2c-38.93,0.01-72.62,3.86-100.14,11.45c-25.78,7.11-47.02,17.74-63.13,31.6
			c-28.45,24.48-42.29,59.58-42.29,107.3c0,5.66,0.54,16.13,1.11,27.2c0.6,11.63,1.23,23.66,1.23,30.5c0,14.82-1.91,26.92-5.83,37
			c-3.85,9.87-9.54,17.57-17.42,23.56c-14.39,10.93-36.28,16.02-68.91,16.02h-5.75V410.28z"/>
	</g>
	<g>
		<path class="st0" d="M64.01,316.54h5.9c60.82,0,92.01-17.15,92.01-76.42c0-13.25-2.34-46.01-2.34-57.71
			c0-85.77,44.28-150.5,205.86-150.5l-0.89,100.5c-84.96,0-73.19,25.82-73.19,74.17c0,13.26,2.34,38.21,2.34,54.59
			c0,55.04-28.51,86.7-81.84,102.84c53.33,16.14,81.84,47.8,81.84,102.84c0,16.37-2.34,41.33-2.34,54.59
			c0,48.35-11.77,74.17,73.19,74.17l0.89,100.5c-161.58,0-205.86-64.72-205.86-150.5c0-11.7,2.34-44.45,2.34-57.71
			c0-59.27-31.19-76.42-92.01-76.42h-5.9V316.54z"/>
		<path class="st1" d="M365.61,696.26h-0.15c-39.02,0-72.79-3.86-100.37-11.46c-25.83-7.12-47.11-17.77-63.25-31.66
			c-28.53-24.54-42.39-59.72-42.39-107.53c0-5.67,0.54-16.14,1.12-27.22c0.6-11.63,1.22-23.66,1.22-30.49
			c0-14.78-1.9-26.85-5.81-36.89c-3.82-9.81-9.49-17.48-17.32-23.43c-14.33-10.88-36.17-15.95-68.72-15.95h-6.05v-95.25h6.05
			c32.55,0,54.39-5.07,68.72-15.95c7.83-5.95,13.5-13.61,17.32-23.43c3.91-10.04,5.81-22.1,5.81-36.89c0-6.83-0.62-18.86-1.22-30.49
			c-0.57-11.08-1.12-21.55-1.12-27.22c0-47.81,13.87-82.99,42.39-107.53c16.14-13.89,37.42-24.54,63.25-31.66
			c27.58-7.6,61.35-11.46,100.37-11.46h0.15l-0.89,100.81h-0.15c-35.17,0-55.17,4.44-64.84,14.4c-9.51,9.79-9.06,24.83-8.5,43.87
			c0.15,5.01,0.3,10.2,0.3,15.75c0,6.28,0.52,15.15,1.08,24.55c0.62,10.53,1.26,21.42,1.26,30.04c0,13.61-1.78,26.08-5.29,37.06
			c-3.46,10.82-8.73,20.59-15.66,29.04c-13.45,16.4-33.25,28.42-60.51,36.73c27.27,8.32,47.06,20.34,60.51,36.73
			c6.93,8.45,12.2,18.22,15.66,29.04c3.51,10.98,5.29,23.45,5.29,37.06c0,8.62-0.64,19.51-1.26,30.04
			c-0.55,9.4-1.08,18.27-1.08,24.55c0,5.55-0.15,10.73-0.3,15.75c-0.56,19.04-1.01,34.08,8.5,43.87c9.67,9.96,29.67,14.4,64.84,14.4
			h0.15L365.61,696.26z M64.16,411.34h5.75c32.62,0,54.52,5.09,68.91,16.02c7.88,5.98,13.58,13.69,17.42,23.56
			c3.93,10.07,5.83,22.18,5.83,37c0,6.84-0.62,18.87-1.22,30.5c-0.57,11.08-1.12,21.54-1.12,27.2c0,47.72,13.83,82.82,42.29,107.3
			c16.11,13.86,37.35,24.49,63.13,31.6c27.52,7.59,61.21,11.44,100.14,11.45l-0.89-100.2c-35.17-0.01-55.19-4.48-64.91-14.49
			c-9.59-9.88-9.15-24.98-8.59-44.09c0.15-5.01,0.3-10.19,0.3-15.74c0-6.28,0.52-15.16,1.08-24.56c0.62-10.52,1.26-21.41,1.26-30.02
			c0-13.58-1.78-26.02-5.28-36.97c-3.45-10.79-8.7-20.52-15.61-28.94c-13.49-16.44-33.39-28.48-60.85-36.78l-0.48-0.15l0.48-0.15
			c27.45-8.31,47.36-20.34,60.85-36.78c6.9-8.42,12.16-18.15,15.61-28.94c3.5-10.95,5.28-23.39,5.28-36.97
			c0-8.61-0.64-19.5-1.26-30.02c-0.55-9.4-1.08-18.28-1.08-24.56c0-5.54-0.15-10.72-0.3-15.74c-0.56-19.11-1.01-34.21,8.59-44.09
			c9.72-10.01,29.74-14.48,64.91-14.49l0.89-100.2c-38.93,0.01-72.62,3.86-100.14,11.45c-25.78,7.11-47.02,17.74-63.13,31.6
			c-28.45,24.48-42.29,59.58-42.29,107.3c0,5.66,0.54,16.13,1.11,27.2c0.6,11.63,1.23,23.66,1.23,30.5c0,14.82-1.91,26.92-5.83,37
			c-3.85,9.87-9.54,17.57-17.42,23.56c-14.39,10.93-36.28,16.02-68.91,16.02h-5.75V411.34z"/>
	</g>
	<g>
		<path class="st0" d="M66.34,317.6h5.9c60.82,0,92.01-17.15,92.01-76.42c0-13.25-2.34-46.01-2.34-57.71
			c0-85.77,44.28-150.5,205.86-150.5l-0.89,100.5c-84.96,0-73.19,25.82-73.19,74.17c0,13.26,2.34,38.21,2.34,54.59
			c0,55.04-28.51,86.7-81.84,102.84c53.33,16.14,81.84,47.8,81.84,102.84c0,16.37-2.34,41.33-2.34,54.59
			c0,48.35-11.77,74.17,73.19,74.17l0.89,100.5c-161.58,0-205.86-64.72-205.86-150.5c0-11.7,2.34-44.45,2.34-57.71
			c0-59.27-31.19-76.42-92.01-76.42h-5.9V317.6z"/>
		<path class="st1" d="M367.94,697.32h-0.15c-39.02,0-72.79-3.86-100.37-11.46c-25.83-7.12-47.11-17.77-63.25-31.66
			c-28.53-24.54-42.39-59.72-42.39-107.53c0-5.67,0.54-16.14,1.12-27.22c0.6-11.63,1.22-23.66,1.22-30.49
			c0-14.78-1.9-26.85-5.81-36.89c-3.82-9.81-9.49-17.48-17.32-23.43c-14.33-10.88-36.17-15.95-68.72-15.95h-6.05v-95.25h6.05
			c32.55,0,54.39-5.07,68.72-15.95c7.83-5.95,13.5-13.61,17.32-23.43c3.91-10.04,5.81-22.1,5.81-36.89c0-6.83-0.62-18.86-1.22-30.49
			c-0.57-11.08-1.12-21.55-1.12-27.22c0-47.81,13.87-82.99,42.39-107.53c16.14-13.89,37.42-24.54,63.25-31.66
			c27.58-7.6,61.35-11.46,100.37-11.46h0.15l-0.89,100.81h-0.15c-35.17,0-55.17,4.44-64.84,14.4c-9.51,9.79-9.06,24.83-8.5,43.87
			c0.15,5.01,0.3,10.2,0.3,15.75c0,6.28,0.52,15.15,1.08,24.55c0.62,10.53,1.26,21.42,1.26,30.04c0,13.61-1.78,26.08-5.29,37.06
			c-3.46,10.82-8.73,20.59-15.66,29.04c-13.45,16.4-33.25,28.42-60.51,36.73c27.27,8.32,47.06,20.34,60.51,36.73
			c6.93,8.45,12.2,18.22,15.66,29.04c3.51,10.98,5.29,23.45,5.29,37.06c0,8.62-0.64,19.51-1.26,30.04
			c-0.55,9.4-1.08,18.27-1.08,24.55c0,5.55-0.15,10.73-0.3,15.75c-0.56,19.04-1.01,34.08,8.5,43.87c9.67,9.96,29.67,14.4,64.84,14.4
			h0.15L367.94,697.32z M66.5,412.39h5.75c32.62,0,54.52,5.09,68.91,16.02c7.88,5.98,13.58,13.69,17.42,23.56
			c3.93,10.07,5.83,22.18,5.83,37c0,6.84-0.62,18.87-1.22,30.5c-0.57,11.08-1.12,21.54-1.12,27.2c0,47.72,13.83,82.82,42.29,107.3
			c16.11,13.86,37.35,24.49,63.13,31.6c27.52,7.59,61.21,11.44,100.14,11.45l-0.89-100.2c-35.17-0.01-55.19-4.48-64.91-14.49
			c-9.59-9.88-9.15-24.98-8.59-44.09c0.15-5.01,0.3-10.19,0.3-15.74c0-6.28,0.52-15.16,1.08-24.56c0.62-10.52,1.26-21.41,1.26-30.02
			c0-13.58-1.78-26.02-5.28-36.97c-3.45-10.79-8.7-20.52-15.61-28.94c-13.49-16.44-33.39-28.48-60.85-36.78l-0.48-0.15l0.48-0.15
			c27.45-8.31,47.36-20.34,60.85-36.78c6.9-8.42,12.16-18.15,15.61-28.94c3.5-10.95,5.28-23.39,5.28-36.97
			c0-8.61-0.64-19.5-1.26-30.02c-0.55-9.4-1.08-18.28-1.08-24.56c0-5.54-0.15-10.72-0.3-15.74c-0.56-19.11-1.01-34.21,8.59-44.09
			c9.72-10.01,29.74-14.48,64.91-14.49l0.89-100.2c-38.93,0.01-72.62,3.86-100.14,11.45c-25.78,7.11-47.02,17.74-63.13,31.6
			c-28.45,24.48-42.29,59.58-42.29,107.3c0,5.66,0.54,16.13,1.11,27.2c0.6,11.63,1.23,23.66,1.23,30.5c0,14.82-1.91,26.92-5.83,37
			c-3.85,9.87-9.54,17.57-17.42,23.56c-14.39,10.93-36.28,16.02-68.91,16.02H66.5V412.39z"/>
	</g>
	<g>
		<path class="st0" d="M68.98,318.65h5.9c60.82,0,92.01-17.15,92.01-76.42c0-13.25-2.34-46.01-2.34-57.71
			c0-85.77,44.28-150.5,205.86-150.5l-0.89,100.5c-84.96,0-73.19,25.82-73.19,74.17c0,13.26,2.34,38.21,2.34,54.59
			c0,55.04-28.51,86.7-81.84,102.84c53.33,16.14,81.84,47.8,81.84,102.84c0,16.37-2.34,41.33-2.34,54.59
			c0,48.35-11.77,74.17,73.19,74.17l0.89,100.5c-161.58,0-205.86-64.72-205.86-150.5c0-11.7,2.34-44.45,2.34-57.71
			c0-59.27-31.19-76.42-92.01-76.42h-5.9V318.65z"/>
		<path class="st1" d="M370.57,698.37h-0.15c-39.02,0-72.79-3.86-100.37-11.46c-25.83-7.12-47.11-17.77-63.25-31.66
			c-28.53-24.54-42.39-59.72-42.39-107.53c0-5.67,0.54-16.14,1.12-27.22c0.6-11.63,1.22-23.66,1.22-30.49
			c0-14.78-1.9-26.85-5.81-36.89c-3.82-9.81-9.49-17.48-17.32-23.43c-14.33-10.88-36.17-15.95-68.72-15.95h-6.05V318.5h6.05
			c32.55,0,54.39-5.07,68.72-15.95c7.83-5.95,13.5-13.61,17.32-23.43c3.91-10.04,5.81-22.1,5.81-36.89c0-6.83-0.62-18.86-1.22-30.49
			c-0.57-11.08-1.12-21.55-1.12-27.22c0-47.81,13.87-82.99,42.39-107.53c16.14-13.89,37.42-24.54,63.25-31.66
			c27.58-7.6,61.35-11.46,100.37-11.46h0.15l-0.89,100.81h-0.15c-35.17,0-55.17,4.44-64.84,14.4c-9.51,9.79-9.06,24.83-8.5,43.87
			c0.15,5.01,0.3,10.2,0.3,15.75c0,6.28,0.52,15.15,1.08,24.55c0.62,10.53,1.26,21.42,1.26,30.04c0,13.61-1.78,26.08-5.29,37.06
			c-3.46,10.82-8.73,20.59-15.66,29.04c-13.45,16.4-33.25,28.42-60.51,36.73c27.27,8.32,47.06,20.34,60.51,36.73
			c6.93,8.45,12.2,18.22,15.66,29.04c3.51,10.98,5.29,23.45,5.29,37.06c0,8.62-0.64,19.51-1.26,30.04
			c-0.55,9.4-1.08,18.27-1.08,24.55c0,5.55-0.15,10.73-0.3,15.75c-0.56,19.04-1.01,34.08,8.5,43.87c9.67,9.96,29.67,14.4,64.84,14.4
			h0.15L370.57,698.37z M69.13,413.45h5.75c32.62,0,54.52,5.09,68.91,16.02c7.88,5.98,13.58,13.69,17.42,23.56
			c3.93,10.07,5.83,22.18,5.83,37c0,6.84-0.62,18.87-1.22,30.5c-0.57,11.08-1.12,21.54-1.12,27.2c0,47.72,13.83,82.82,42.29,107.3
			c16.11,13.86,37.35,24.49,63.13,31.6c27.52,7.59,61.21,11.44,100.14,11.45l-0.89-100.2c-35.17-0.01-55.19-4.48-64.91-14.49
			c-9.59-9.88-9.15-24.98-8.59-44.09c0.15-5.01,0.3-10.19,0.3-15.74c0-6.28,0.52-15.16,1.08-24.56c0.62-10.52,1.26-21.41,1.26-30.02
			c0-13.58-1.78-26.02-5.28-36.97c-3.45-10.79-8.7-20.52-15.61-28.94c-13.49-16.44-33.39-28.48-60.85-36.78l-0.48-0.15l0.48-0.15
			c27.45-8.31,47.36-20.34,60.85-36.78c6.9-8.42,12.16-18.15,15.61-28.94c3.5-10.95,5.28-23.39,5.28-36.97
			c0-8.61-0.64-19.5-1.26-30.02c-0.55-9.4-1.08-18.28-1.08-24.56c0-5.54-0.15-10.72-0.3-15.74c-0.56-19.11-1.01-34.21,8.59-44.09
			c9.72-10.01,29.74-14.48,64.91-14.49l0.89-100.2c-38.93,0.01-72.62,3.86-100.14,11.45c-25.78,7.11-47.02,17.74-63.13,31.6
			c-28.45,24.48-42.29,59.58-42.29,107.3c0,5.66,0.54,16.13,1.11,27.2c0.6,11.63,1.23,23.66,1.23,30.5c0,14.82-1.91,26.92-5.83,37
			c-3.85,9.87-9.54,17.57-17.42,23.56c-14.39,10.93-36.28,16.02-68.91,16.02h-5.75V413.45z"/>
	</g>
</g>
</svg>
