<?xml version="1.0" encoding="utf-8"?>
<!-- Generator: Adobe Illustrator 24.0.3, SVG Export Plug-In . SVG Version: 6.00 Build 0)  -->
<svg version="1.1" id="Layer_1" xmlns="http://www.w3.org/2000/svg" xmlns:xlink="http://www.w3.org/1999/xlink" x="0px" y="0px"
	 viewBox="0 0 1080 1080" style="enable-background:new 0 0 1080 1080;" xml:space="preserve">
<style type="text/css">
	.st0{fill:#F072AB;}
</style>
<g>
	<g>
		<path class="st0" d="M422.81,882l0.05-88.58l1.27-0.15c37.55-4.48,61.28-15.41,74.68-34.38c11.4-16.14,15.8-38.1,14.62-73.26
			h-90.57V453.51H658.5v188.36c0,84.78-20.2,144.91-61.75,183.85c-19.7,18.46-43.81,31.99-73.69,41.36
			c-28,8.78-60.3,13.64-98.76,14.88L422.81,882z M425.74,795.97l-0.05,83.06c37.54-1.3,69.12-6.11,96.5-14.69
			c29.46-9.24,53.21-22.55,72.59-40.71c40.94-38.36,60.84-97.82,60.84-181.75V456.38H425.74v226.37h90.46l0.05,1.38
			C518.6,747.5,504.51,786.17,425.74,795.97z"/>
	</g>
	<g>
		<path class="st0" d="M657.19,391.79H421.5V198h235.69V391.79z M424.12,389.17h230.45V200.62H424.12V389.17z"/>
	</g>
</g>
</svg>
